<?xml version="1.0" encoding="UTF-8"?>
<svg id="Layer_1" data-name="Layer 1" xmlns="http://www.w3.org/2000/svg" xmlns:xlink="http://www.w3.org/1999/xlink" viewBox="0 0 1647.21 1080">
  <defs>
    <style>
      .cls-1 {
        stroke: url(#linear-gradient-2);
      }

      .cls-1, .cls-2, .cls-3, .cls-4 {
        fill: none;
        stroke-miterlimit: 10;
        stroke-width: 2px;
      }

      .cls-2 {
        stroke: url(#linear-gradient-4);
      }

      .cls-3 {
        stroke: url(#linear-gradient-3);
      }

      .cls-4 {
        stroke: url(#linear-gradient);
      }
    </style>
    <linearGradient id="linear-gradient" x1="1041.53" y1="539.7" x2="1638.94" y2="539.7" gradientUnits="userSpaceOnUse">
      <stop offset="0" stop-color="#4539e5"/>
      <stop offset="1" stop-color="#0accc6"/>
    </linearGradient>
    <linearGradient id="linear-gradient-2" x1="442.93" y1="42.81" x2="60.81" y2="886.59" gradientUnits="userSpaceOnUse">
      <stop offset="0" stop-color="#0accc6"/>
      <stop offset="1" stop-color="#4539e5"/>
    </linearGradient>
    <linearGradient id="linear-gradient-3" x1="11.19" y1="721.04" x2="300.3" y2="721.04" gradientUnits="userSpaceOnUse">
      <stop offset="0" stop-color="#00ff94"/>
      <stop offset="1" stop-color="#0accc6"/>
    </linearGradient>
    <linearGradient id="linear-gradient-4" x1="661.03" y1="101.72" x2="1007.06" y2="978.32" xlink:href="#linear-gradient-3"/>
  </defs>
  <path class="cls-4" d="m1600.69,1049.74h-337.2c-15.27,0-29-9.33-34.61-23.53l-183.74-464.65c-3.47-8.79-3.48-18.57,0-27.35l-.44-.11L1243.77,30.38l.32-.21,391.12,968.41c9.88,24.47-8.13,51.16-34.51,51.16Z"/>
  <path class="cls-1" d="m623.02,545.9l.37.17-199.19,503.67h-.24L12.19,30.17h392.37c15.27,0,29,9.33,34.61,23.53l183.84,464.83c3.48,8.79,3.48,18.57,0,27.37Z"/>
  <path class="cls-3" d="m49.41,1049.83h249.42S42.77,402.29,42.77,402.29c-6.43-16.25-30.58-11.65-30.58,5.83v604.49c0,20.56,16.66,37.22,37.22,37.22Z"/>
  <path class="cls-2" d="m1244.08,30.17l-393.15,996.01c-5.61,14.21-19.34,23.56-34.62,23.56h-392.35L817.47,53.72c5.61-14.21,19.34-23.54,34.62-23.54h391.99Z"/>
</svg>