<?xml version="1.0" encoding="UTF-8"?>
<svg id="Layer_1" data-name="Layer 1" xmlns="http://www.w3.org/2000/svg" xmlns:xlink="http://www.w3.org/1999/xlink" viewBox="0 0 1920 365.54">
  <defs>
    <style>
      .cls-1 {
        fill: url(#linear-gradient);
      }

      .cls-1, .cls-2, .cls-3, .cls-4, .cls-5, .cls-6 {
        stroke-width: 0px;
      }

      .cls-2 {
        fill: #0accc6;
      }

      .cls-3 {
        fill: #2b2b2b;
      }

      .cls-4 {
        fill: url(#linear-gradient-2);
      }

      .cls-5 {
        fill: url(#linear-gradient-3);
      }

      .cls-6 {
        fill: url(#linear-gradient-4);
      }
    </style>
    <linearGradient id="linear-gradient" x1="1887.22" y1="1661.96" x2="2004.16" y2="1661.96" gradientTransform="translate(1791.32 -1661.75) rotate(90)" gradientUnits="userSpaceOnUse">
      <stop offset="0" stop-color="#4539e5"/>
      <stop offset="1" stop-color="#0accc6"/>
    </linearGradient>
    <linearGradient id="linear-gradient-2" x1="1764.44" y1="1575.6" x2="1710.52" y2="1694.67" gradientTransform="translate(1791.32 -1661.75) rotate(90)" gradientUnits="userSpaceOnUse">
      <stop offset="0" stop-color="#0accc6"/>
      <stop offset="1" stop-color="#4539e5"/>
    </linearGradient>
    <linearGradient id="linear-gradient-3" x1="1684.87" y1="1697.53" x2="1741.17" y2="1697.53" gradientTransform="translate(1791.32 -1661.75) rotate(90)" gradientUnits="userSpaceOnUse">
      <stop offset="0" stop-color="#00ff94"/>
      <stop offset="1" stop-color="#0accc6"/>
    </linearGradient>
    <linearGradient id="linear-gradient-4" x1="1818.21" y1="1590.87" x2="1874.6" y2="1733.71" xlink:href="#linear-gradient-3"/>
  </defs>
  <g>
    <path class="cls-2" d="m1820.98,81.17h-34.76l-69.8,188.5h29.37l13.25-34.92h89.12l13.24,34.92h29.37l-69.8-188.5Zm13.04,128.1h-60.85c-2.96,0-5.02-2.96-3.97-5.75l23.78-64.5c1.54-4.01,2.51-7.82,2.92-11.42.41-3.61.61-9.93.61-15.03h14.18c0,5.1.2,11.43.61,15.03.41,3.6,1.38,7.41,2.92,11.42l23.78,64.5c1.05,2.79-1.01,5.75-3.97,5.75Z"/>
    <path class="cls-2" d="m1681.1,180.17c-.72-.2-2.94-.72-4.17-1.03-.52-.12-.83-.2-.83-.2v-6.99s.32-.08.83-.2c1.23-.32,3.46-.83,4.17-1.03,51.03-13.55,42.32-86.39-20.9-91.52-42.96-3.5-74.04,20.78-73.96,57.58h26.86c.16-9.1,3.18-16.69,9.97-22.53,13.27-11.41,37.75-12.28,51.78-1.91,16.02,11.8,13.55,37.79-4.65,45.78-10.65,4.65-23.29,3.85-29.65,3.85v26.9c6.36,0,19.04-.79,29.65,3.85,18.2,7.99,20.66,33.98,4.65,45.78-14.03,10.37-38.51,9.5-51.78-1.91-6.8-5.84-9.82-13.43-9.97-22.53h-26.86c-.08,36.8,30.96,61.08,73.96,57.58,63.23-5.13,71.93-78.01,20.9-91.52v.04Z"/>
  </g>
  <path class="cls-3" d="m871.83,269.67l-.77-157.25h49.61v-31.25h-133.01v31.25h48.68v157.25"/>
  <path class="cls-3" d="m654.07,43.66v3.68c0,2.23,1.81,4.04,4.04,4.04h58.86c2.23,0,4.04-1.81,4.04-4.04v-18.37c0-2.63-2.47-4.56-5.02-3.92l-58.86,14.68c-1.8.45-3.06,2.07-3.06,3.92Z"/>
  <path class="cls-3" d="m745.58,207.99c-32.49,55.5-111.47,38.06-110.79-26.16,18.83,0,136.55.12,138.18,0,0-9.08.16-18.03-.48-26.59-8.12-111.31-182.37-101.04-171.11,31.29,5.81,68.32,60.51,89.53,101.76,84.84,31.89-3.62,54.42-20.38,70.15-48.17l-27.71-15.25v.04Zm-57.09-99.97c28.03.08,47.49,17.16,49.6,47.77h-101.24c-.6-24.56,22.73-47.81,51.63-47.77Z"/>
  <path class="cls-3" d="m1236.44,81.17h-76.41v188.5h76.41s94.47-2.05,94.47-94.39-94.47-94.11-94.47-94.11Zm.09,156.57l-40.45.03v-124.74h40.36c40.13.37,58.77,32.32,58.42,62.26-.36,30.06-19.88,62.38-58.33,62.45Z"/>
  <path class="cls-3" d="m1029.75,78.86c-52.33,0-94.73,38.48-94.73,96.58,0,61.11,42.4,96.56,94.73,96.56s94.73-35.45,94.73-96.56-42.4-96.58-94.73-96.58Zm0,161.28c-32.08,0-58.69-22.46-58.69-64.69s26.62-64.72,58.69-64.72,58.71,22.49,58.71,64.72-26.63,64.69-58.71,64.69Z"/>
  <path class="cls-3" d="m1455.96,78.86c-52.33,0-94.73,38.48-94.73,96.58,0,61.11,42.4,96.56,94.73,96.56s94.73-35.45,94.73-96.56-42.4-96.58-94.73-96.58Zm0,161.28c-32.08,0-58.69-22.46-58.69-64.69s26.62-64.72,58.69-64.72,58.71,22.49,58.71,64.72-26.63,64.69-58.71,64.69Z"/>
  <polygon class="cls-3" points="515.5 81.17 453.2 223.62 448.42 223.62 386.12 81.17 336.29 81.17 336.29 269.67 371.63 269.67 371.63 146.75 376.41 146.75 432.29 269.67 469.33 269.67 525.2 146.75 529.98 146.75 529.98 269.67 565.32 269.67 565.32 81.17 515.5 81.17"/>
  <g>
    <path class="cls-1" d="m29.24,335.1v-66.22c0-3,1.83-5.69,4.62-6.8l91.25-36.09c1.73-.68,3.65-.68,5.37,0l.02-.09,98.93,39.1.04.06-190.19,76.81c-4.8,1.94-10.05-1.6-10.05-6.78Z"/>
    <path class="cls-4" d="m128.19,143.09l-.03.07L29.24,104.04v-.05L229.47,23.12v77.06c0,3-1.83,5.69-4.62,6.8l-91.29,36.1c-1.73.68-3.65.68-5.37,0Z"/>
    <path class="cls-5" d="m29.22,30.43v48.98s127.17-50.29,127.17-50.29c3.19-1.26,2.29-6-1.14-6H36.53c-4.04,0-7.31,3.27-7.31,7.31Z"/>
    <path class="cls-6" d="m229.47,265.06L33.86,187.85c-2.79-1.1-4.63-3.8-4.63-6.8v-77.06l195.61,77.28c2.79,1.1,4.62,3.8,4.62,6.8v76.99Z"/>
  </g>
</svg>