<?xml version="1.0" encoding="UTF-8"?>
<svg id="Layer_1" data-name="Layer 1" xmlns="http://www.w3.org/2000/svg" viewBox="0 0 1920 869.34">
  <defs>
    <style>
      .cls-1 {
        stroke-width: 0px;
      }
    </style>
  </defs>
  <g>
    <g>
      <path class="cls-1" d="m1813.1,620.24h-41.91l-84.17,227.31h35.42l15.97-42.11h107.47l15.97,42.11h35.42l-84.17-227.31Zm15.73,154.48h-73.37c-3.57,0-6.06-3.57-4.79-6.94l28.68-77.78c1.86-4.84,3.03-9.43,3.52-13.77.49-4.35.73-11.97.73-18.13h17.1c0,6.15.24,13.78.73,18.13.49,4.35,1.66,8.94,3.52,13.77l28.68,77.78c1.27,3.37-1.22,6.94-4.79,6.94Z"/>
      <path class="cls-1" d="m1644.42,739.62c-.86-.24-3.55-.86-5.03-1.25-.62-.14-1.01-.24-1.01-.24v-8.43s.38-.1,1.01-.24c1.49-.38,4.17-1.01,5.03-1.25,61.53-16.34,51.04-104.18-25.21-110.36-51.8-4.22-89.28,25.06-89.18,69.44h32.4c.19-10.97,3.83-20.13,12.03-27.17,16.01-13.75,45.53-14.81,62.44-2.3,19.31,14.23,16.34,45.57-5.61,55.21-12.84,5.61-28.08,4.65-35.75,4.65v32.44c7.67,0,22.95-.96,35.75,4.65,21.95,9.63,24.92,40.97,5.61,55.21-16.92,12.51-46.44,11.45-62.44-2.3-8.19-7.04-11.84-16.2-12.03-27.17h-32.4c-.1,44.38,37.33,73.66,89.18,69.44,76.24-6.18,86.74-94.07,25.21-110.36v.05Z"/>
    </g>
    <polyline class="cls-1" points="668.53 847.55 667.6 657.93 727.42 657.93 727.42 620.24 567.02 620.24 567.02 657.93 625.72 657.93 625.72 847.55"/>
    <path class="cls-1" d="m405.94,575.01v4.44c0,2.69,2.18,4.88,4.88,4.88h70.98c2.69,0,4.88-2.18,4.88-4.88v-22.15c0-3.17-2.98-5.5-6.06-4.73l-70.98,17.7c-2.17.54-3.7,2.49-3.7,4.73Z"/>
    <path class="cls-1" d="m516.29,773.17c-39.17,66.92-134.42,45.9-133.6-31.54,22.71,0,164.67.14,166.63,0,0-10.95.19-21.75-.58-32.07-9.79-134.23-219.92-121.84-206.34,37.73,7.01,82.38,72.97,107.97,122.71,102.3,38.45-4.37,65.63-24.58,84.59-58.09l-33.41-18.39v.05Zm-68.84-120.55c33.8.1,57.27,20.69,59.82,57.61h-122.08c-.72-29.62,27.41-57.66,62.27-57.61Z"/>
    <path class="cls-1" d="m1108.2,620.24h-92.15v227.31h92.15s113.92-2.47,113.92-113.83-113.92-113.49-113.92-113.49Zm.11,188.81l-48.77.04v-150.43h48.67c48.39.45,70.87,38.98,70.44,75.08-.43,36.25-23.97,75.22-70.33,75.31Z"/>
    <path class="cls-1" d="m858.96,617.45c-63.1,0-114.23,46.41-114.23,116.47,0,73.69,51.13,116.43,114.23,116.43s114.23-42.75,114.23-116.43-51.13-116.47-114.23-116.47Zm0,194.48c-38.68,0-70.78-27.08-70.78-78.01s32.1-78.05,70.78-78.05,70.79,27.12,70.79,78.05-32.11,78.01-70.79,78.01Z"/>
    <path class="cls-1" d="m1372.93,617.45c-63.1,0-114.23,46.41-114.23,116.47,0,73.69,51.13,116.43,114.23,116.43s114.23-42.75,114.23-116.43-51.13-116.47-114.23-116.47Zm0,194.48c-38.68,0-70.78-27.08-70.78-78.01s32.1-78.05,70.78-78.05,70.79,27.12,70.79,78.05-32.11,78.01-70.79,78.01Z"/>
    <polygon class="cls-1" points="238.84 620.24 163.71 792.02 157.95 792.02 82.81 620.24 22.73 620.24 22.73 847.55 65.34 847.55 65.34 699.32 71.11 699.32 138.49 847.55 183.16 847.55 250.54 699.32 256.3 699.32 256.3 847.55 298.91 847.55 298.91 620.24 238.84 620.24"/>
  </g>
  <g>
    <path class="cls-1" d="m808.67,490.59v-100.11c0-4.53,2.77-8.61,6.99-10.28l137.95-54.55c2.61-1.03,5.51-1.03,8.12,0l.03-.13,149.54,59.1.06.09-287.5,116.12c-7.26,2.93-15.19-2.41-15.19-10.25Z"/>
    <path class="cls-1" d="m958.25,200.33l-.05.11-149.53-59.14v-.07l302.69-122.25v116.49c0,4.53-2.77,8.61-6.99,10.28l-138,54.58c-2.61,1.03-5.51,1.03-8.12,0Z"/>
    <path class="cls-1" d="m808.64,30.04v74.05s192.24-76.02,192.24-76.02c4.83-1.91,3.46-9.08-1.73-9.08h-179.46c-6.1,0-11.05,4.95-11.05,11.05Z"/>
    <path class="cls-1" d="m1111.36,384.72l-295.7-116.72c-4.22-1.67-6.99-5.74-6.99-10.28v-116.48l295.7,116.83c4.22,1.67,6.99,5.74,6.99,10.28v116.38Z"/>
  </g>
</svg>